<?xml version="1.0" encoding="UTF-8" standalone="no"?>
<!-- Created with Inkscape (http://www.inkscape.org/) -->

<svg
   xmlns:dc="http://purl.org/dc/elements/1.1/"
   xmlns:cc="http://creativecommons.org/ns#"
   xmlns:rdf="http://www.w3.org/1999/02/22-rdf-syntax-ns#"
   xmlns:svg="http://www.w3.org/2000/svg"
   xmlns="http://www.w3.org/2000/svg"
   xmlns:sodipodi="http://sodipodi.sourceforge.net/DTD/sodipodi-0.dtd"
   xmlns:inkscape="http://www.inkscape.org/namespaces/inkscape"
   width="100"
   height="100"
   viewBox="0 0 26.458333 26.458334"
   version="1.1"
   id="svg22926"
   inkscape:version="0.92.1 r15371"
   sodipodi:docname="cog.svg">
  <defs
     id="defs22920">
    <clipPath
       clipPathUnits="userSpaceOnUse"
       id="clipPath660">
      <path
         d="M 0,800 H 800 V 0 H 0 Z"
         id="path658"
         inkscape:connector-curvature="0" />
    </clipPath>
    <clipPath
       clipPathUnits="userSpaceOnUse"
       id="clipPath564">
      <path
         d="M 0,800 H 800 V 0 H 0 Z"
         id="path562"
         inkscape:connector-curvature="0" />
    </clipPath>
    <clipPath
       clipPathUnits="userSpaceOnUse"
       id="clipPath610">
      <path
         d="M 0,800 H 800 V 0 H 0 Z"
         id="path608"
         inkscape:connector-curvature="0" />
    </clipPath>
    <clipPath
       clipPathUnits="userSpaceOnUse"
       id="clipPath630">
      <path
         d="m 474.318,558.718 h 5.29 v -4.985 h -5.29 z"
         id="path628"
         inkscape:connector-curvature="0" />
    </clipPath>
  </defs>
  <sodipodi:namedview
     id="base"
     pagecolor="#ffffff"
     bordercolor="#666666"
     borderopacity="1.0"
     inkscape:pageopacity="0.0"
     inkscape:pageshadow="2"
     inkscape:zoom="7.9195959"
     inkscape:cx="38.931869"
     inkscape:cy="51.247925"
     inkscape:document-units="mm"
     inkscape:current-layer="layer1"
     showgrid="true"
     objecttolerance="20"
     guidetolerance="20"
     units="px"
     showguides="true"
     inkscape:guide-bbox="true"
     gridtolerance="10"
     inkscape:snap-perpendicular="false"
     inkscape:window-width="1920"
     inkscape:window-height="1027"
     inkscape:window-x="-8"
     inkscape:window-y="-8"
     inkscape:window-maximized="1">
    <sodipodi:guide
       position="0,21.381562"
       orientation="1,0"
       id="guide22992"
       inkscape:locked="false" />
  </sodipodi:namedview>
  <metadata
     id="metadata22923">
    <rdf:RDF>
      <cc:Work
         rdf:about="">
        <dc:format>image/svg+xml</dc:format>
        <dc:type
           rdf:resource="http://purl.org/dc/dcmitype/StillImage" />
        <dc:title></dc:title>
      </cc:Work>
    </rdf:RDF>
  </metadata>
  <g
     inkscape:label="Layer 1"
     inkscape:groupmode="layer"
     id="layer1"
     transform="translate(0,-270.54165)">
    <g
       transform="matrix(0.84226681,0,0,-0.84226681,-385.61115,754.96423)"
       id="g604">
      <g
         id="g606"
         clip-path="url(#clipPath610)">
        <g
           id="g612"
           transform="translate(489.2705,559.396)">
          <path
             d="m 0,0 c 0,-8.67 -7.027,-15.698 -15.697,-15.698 -8.669,0 -15.699,7.028 -15.699,15.698 0,8.669 7.03,15.698 15.699,15.698 C -7.027,15.698 0,8.669 0,0"
             style="fill:#f1f3ee;fill-opacity:1;fill-rule:nonzero;stroke:none"
             id="path614"
             inkscape:connector-curvature="0" />
        </g>
        <g
           id="g616"
           transform="translate(472.3594,556.4731)">
          <path
             d="M 0,0 C -2.137,0 -3.874,1.737 -3.874,3.874 -3.874,6.01 -2.137,7.749 0,7.749 2.138,7.749 3.875,6.01 3.875,3.874 3.875,3.841 3.87,3.809 3.869,3.775 H 8.848 C 8.851,4.142 8.837,4.511 8.798,4.878 8.769,5.127 8.479,5.314 8.227,5.314 7.415,5.314 6.695,5.791 6.391,6.529 6.083,7.284 6.282,8.166 6.887,8.722 7.077,8.896 7.101,9.188 6.94,9.39 6.524,9.918 6.053,10.396 5.537,10.81 5.335,10.971 5.039,10.947 4.863,10.754 4.334,10.169 3.384,9.952 2.651,10.258 c -0.765,0.321 -1.245,1.095 -1.198,1.926 0.015,0.259 -0.175,0.487 -0.434,0.517 -0.665,0.076 -1.331,0.078 -1.996,0.004 -0.255,-0.028 -0.448,-0.249 -0.439,-0.506 0.029,-0.823 -0.458,-1.584 -1.214,-1.892 -0.725,-0.296 -1.668,-0.08 -2.193,0.499 C -5,10.997 -5.29,11.021 -5.494,10.862 -6.026,10.446 -6.509,9.969 -6.93,9.444 -7.094,9.241 -7.068,8.946 -6.876,8.771 -6.258,8.212 -6.06,7.323 -6.38,6.559 -6.685,5.83 -7.442,5.36 -8.309,5.36 -8.592,5.369 -8.791,5.18 -8.822,4.924 -8.898,4.258 -8.9,3.579 -8.825,2.908 c 0.027,-0.25 0.328,-0.436 0.581,-0.436 0.773,0.02 1.515,-0.458 1.825,-1.215 0.309,-0.756 0.109,-1.636 -0.495,-2.194 -0.191,-0.173 -0.216,-0.464 -0.055,-0.667 0.411,-0.524 0.884,-1.002 1.403,-1.419 0.204,-0.164 0.499,-0.141 0.675,0.053 0.531,0.587 1.48,0.804 2.209,0.498 0.767,-0.32 1.247,-1.094 1.201,-1.925 -0.015,-0.261 0.176,-0.488 0.436,-0.517 0.337,-0.04 0.679,-0.06 1.021,-0.06 0.011,0 0.025,0.001 0.039,0.001 V 0 Z"
             style="fill:#313332;fill-opacity:1;fill-rule:nonzero;stroke:none"
             id="path618"
             inkscape:connector-curvature="0" />
        </g>
        <g
           id="g620"
           transform="translate(475.3369,559.4521)">
          <path
             d="M 0,0 C 0.363,0.994 -0.288,3.806 -2.874,3.735 -2.994,3.733 -3.228,3.666 -2.992,3.463 -2.43,2.984 -2.153,2.7 -2.003,2.552 -1.546,2.104 -1.815,0.924 -2.31,0.39 -2.804,-0.145 -4.033,-0.295 -4.456,0.011 c -0.25,0.183 -0.58,0.521 -0.847,0.81 -0.313,0.334 -0.323,0.009 -0.312,-0.129 0.215,-2.535 2.926,-3.048 3.839,-2.48 0,0 3.44,-3.211 5.546,-5.201 C 5.261,-8.4 7.015,-6.505 5.593,-5.243 3.855,-3.705 0,0 0,0"
             style="fill:#e6b706;fill-opacity:1;fill-rule:nonzero;stroke:none"
             id="path622"
             inkscape:connector-curvature="0" />
        </g>
        <g
           id="g624">
          <g
             id="g626" />
          <g
             id="g638">
            <g
               clip-path="url(#clipPath630)"
               id="g636">
              <g
                 transform="translate(479.4834,553.876)"
                 id="g634">
                <path
                   d="M 0,0 C -0.177,-0.184 -0.467,-0.192 -0.651,-0.016 L -5.165,4.175 -4.53,4.842 -0.019,0.651 C 0.165,0.476 0.173,0.186 0,0"
                   style="fill:#e4e3e5;fill-opacity:1;fill-rule:nonzero;stroke:none"
                   id="path632"
                   inkscape:connector-curvature="0" />
              </g>
            </g>
          </g>
        </g>
      </g>
    </g>
  </g>
</svg>
