<?xml version="1.0" encoding="UTF-8" standalone="no"?>
<svg
   xmlns:dc="http://purl.org/dc/elements/1.1/"
   xmlns:cc="http://creativecommons.org/ns#"
   xmlns:rdf="http://www.w3.org/1999/02/22-rdf-syntax-ns#"
   xmlns:svg="http://www.w3.org/2000/svg"
   xmlns="http://www.w3.org/2000/svg"
   xmlns:sodipodi="http://sodipodi.sourceforge.net/DTD/sodipodi-0.dtd"
   xmlns:inkscape="http://www.inkscape.org/namespaces/inkscape"
   width="20"
   height="20"
   viewBox="0 0 5.2916665 5.2916668"
   version="1.1"
   id="svg28282"
   sodipodi:docname="favourite.svg"
   inkscape:version="0.92.1 r15371">
  <sodipodi:namedview
     pagecolor="#ffffff"
     bordercolor="#666666"
     borderopacity="1"
     objecttolerance="10"
     gridtolerance="10"
     guidetolerance="10"
     inkscape:pageopacity="0"
     inkscape:pageshadow="2"
     inkscape:window-width="1920"
     inkscape:window-height="1027"
     id="namedview19"
     showgrid="false"
     inkscape:zoom="11.8"
     inkscape:cx="10"
     inkscape:cy="10"
     inkscape:window-x="-8"
     inkscape:window-y="-8"
     inkscape:window-maximized="1"
     inkscape:current-layer="svg28282" />
  <defs
     id="defs28276">
    <clipPath
       clipPathUnits="userSpaceOnUse"
       id="clipPath11660">
      <path
         d="M 0,800 H 800 V 0 H 0 Z"
         id="path11658" />
    </clipPath>
    <clipPath
       clipPathUnits="userSpaceOnUse"
       id="clipPath11668">
      <path
         d="m 348.407,417.247 h 7.772 v -7.773 h -7.772 z"
         id="path11666" />
    </clipPath>
    <clipPath
       clipPathUnits="userSpaceOnUse"
       id="clipPath11660-4">
      <path
         d="M 0,800 H 800 V 0 H 0 Z"
         id="path11658-0"
         inkscape:connector-curvature="0" />
    </clipPath>
    <clipPath
       clipPathUnits="userSpaceOnUse"
       id="clipPath11668-3">
      <path
         d="m 348.407,417.247 h 7.772 v -7.773 h -7.772 z"
         id="path11666-6"
         inkscape:connector-curvature="0" />
    </clipPath>
  </defs>
  <metadata
     id="metadata28279">
    <rdf:RDF>
      <cc:Work
         rdf:about="">
        <dc:format>image/svg+xml</dc:format>
        <dc:type
           rdf:resource="http://purl.org/dc/dcmitype/StillImage" />
        <dc:title />
      </cc:Work>
    </rdf:RDF>
  </metadata>
  <g
     style="fill:#241f1f;fill-opacity:0.7019608"
     id="layer1"
     transform="translate(0,-291.70832)">
    <g
       style="fill:#241f1f;fill-opacity:0.7019608"
       transform="matrix(0.68105097,0,0,-0.68105097,-237.2602,575.89709)"
       id="g11656"
       clip-path="url(#clipPath11660)">
      <g
         style="fill:#241f1f;fill-opacity:0.7019608"
         id="g11662">
        <g
           style="fill:#241f1f;fill-opacity:0.7019608"
           id="g11664" />
        <g
           style="fill:#241f1f;fill-opacity:0.7019608"
           id="g11680">
          <g
             clip-path="url(#clipPath11668)"
             id="g11678"
             style="opacity:0.69999701;fill:#241f1f;fill-opacity:0.7019608">
            <g
               style="fill:#241f1f;fill-opacity:0.7019608"
               transform="translate(352.292,411.623)"
               id="g11672">
              <path
                 d="M 0,0 C 0,0 0.476,0.365 0.994,0.902 1.32,1.241 1.74,1.637 1.835,2.088 2.041,3.064 1.396,3.475 0.774,3.475 0.179,3.475 0,2.862 0,2.862 c 0,0 -0.178,0.613 -0.773,0.613 -0.622,0 -1.268,-0.411 -1.061,-1.387 C -1.738,1.637 -1.319,1.241 -0.993,0.902 -0.475,0.365 0,0 0,0"
                 style="fill:#241f1f;fill-opacity:0.7019608;fill-rule:nonzero;stroke:none"
                 id="path11670" />
            </g>
            <g
               style="fill:#241f1f;fill-opacity:0.7019608"
               transform="translate(355.0605,410.8901)"
               id="g11676">
              <path
                 d="m 0,0 c 0,-0.164 -0.134,-0.298 -0.3,-0.298 h -4.937 c -0.165,0 -0.3,0.134 -0.3,0.298 v 4.939 c 0,0.165 0.135,0.3 0.3,0.3 H -0.3 c 0.166,0 0.3,-0.135 0.3,-0.3 z m 0.697,6.356 h -6.93 c -0.233,0 -0.42,-0.189 -0.42,-0.421 v -6.931 c 0,-0.232 0.187,-0.42 0.42,-0.42 h 6.93 c 0.232,0 0.421,0.188 0.421,0.42 v 6.931 c 0,0.232 -0.189,0.421 -0.421,0.421"
                 style="fill:#241f1f;fill-opacity:0.7019608;fill-rule:nonzero;stroke:none"
                 id="path11674" />
            </g>
          </g>
        </g>
      </g>
    </g>
  </g>
</svg>
