<?xml version="1.0" encoding="UTF-8" standalone="no"?>
<svg
   xmlns:dc="http://purl.org/dc/elements/1.1/"
   xmlns:cc="http://creativecommons.org/ns#"
   xmlns:rdf="http://www.w3.org/1999/02/22-rdf-syntax-ns#"
   xmlns:svg="http://www.w3.org/2000/svg"
   xmlns="http://www.w3.org/2000/svg"
   id="svg22989"
   version="1.1"
   viewBox="0 0 2.9104166 6.3500004"
   height="24"
   width="11">
  <defs
     id="defs22983">
    <clipPath
       id="clipPath286"
       clipPathUnits="userSpaceOnUse">
      <path
         id="path284"
         d="M 0,800 H 800 V 0 H 0 Z" />
    </clipPath>
  </defs>
  <metadata
     id="metadata22986">
    <rdf:RDF>
      <cc:Work
         rdf:about="">
        <dc:format>image/svg+xml</dc:format>
        <dc:type
           rdf:resource="http://purl.org/dc/dcmitype/StillImage" />
        <dc:title></dc:title>
      </cc:Work>
    </rdf:RDF>
  </metadata>
  <g
     transform="translate(0,-290.64996)"
     id="layer1">
    <g
       id="g280"
       transform="matrix(0.35277777,0,0,-0.35277777,-155.43583,322.14375)">
      <g
         clip-path="url(#clipPath286)"
         id="g282">
        <g
           transform="matrix(2.0998405,0,0,2.0998405,451.14656,81.787074)"
           id="g296" />
        <g
           transform="translate(0.3515625,-4.5106565)"
           id="g23051">
          <g
             id="g288"
             transform="translate(443.10827,86.585693)">
            <path
               d="m 1.0158517,-0.34579622 h 0.6334375 c 0.2946478,0 0.5352217,0.2394703 0.5352217,0.5341181 v 0.4811477 c 0,0.2946478 -0.2405739,0.53191102 -0.5352217,0.53191102 H 1.0158517 c -0.2979585,0 -0.60915954,-0.37520692 -0.82986949,-0.89608242 -0.22181351,-0.5263932 -0.36196433,-1.252529 -0.36196433,-2.12985108 0,-0.8729079 0.14015082,-1.5515909 0.36196433,-2.07357 0.22070995,-0.5230826 0.53191099,-0.9004966 0.82986949,-0.9004966 h 0.6334375 c 0.2946478,0 0.5352217,0.2416774 0.5352217,0.5363252 v 0.4789406 c 0,0.2946478 -0.2405739,0.5341181 -0.5352217,0.5341181 H 1.0158517 c -0.40389928,0 -0.51866846,1.021887 -0.51866846,1.453375 0,0.4303844 0.11476918,1.45006438 0.51866846,1.45006438"
               style="fill:#e6b706;fill-opacity:1;fill-rule:nonzero;stroke:none;stroke-width:1.10354972"
               id="path290" />
          </g>
          <path
             id="path294"
             style="fill:#e6b706;fill-opacity:1;fill-rule:nonzero;stroke:none;stroke-width:1.40260971"
             d="m 447.84902,90.673975 -1.11795,1.115007 v 1.290322 c 0,0.232819 -0.19076,0.42216 -0.42501,0.42216 -0.23005,0 -0.41801,-0.189341 -0.41801,-0.42216 v -0.4446 l -0.8318,0.8331 c -0.41099,0.408134 -1.12776,0.408134 -1.53875,-0.0028 l -2.78996,-2.791024 c -0.16271,-0.164095 -0.16271,-0.43338 0,-0.60028 0.16411,-0.161291 0.43063,-0.161291 0.59755,0 l 0.30859,0.312762 c -0.006,-0.02244 -0.01,-0.04067 -0.01,-0.06592 v -1.785414 c 0,-0.42216 0.34226,-0.76157 0.76026,-0.76157 h 1.21754 v 1.880785 h 1.37184 v -1.880785 h 1.21613 c 0.41941,0 0.75886,0.33941 0.75886,0.76157 v 1.785414 c 0,0.02524 -0.003,0.04348 -0.008,0.06592 l 0.31,-0.312762 c 0.0828,-0.07854 0.19217,-0.123423 0.29877,-0.123423 0.10801,0 0.21602,0.04488 0.30018,0.123423 0.16412,0.1669 0.16412,0.436185 0,0.60028" />
          <g
             id="g23027"
             transform="matrix(0.80000009,0,0,0.80000009,86.861108,16.357407)">
            <path
               id="path298"
               style="fill:#e6b706;fill-opacity:1;fill-rule:nonzero;stroke:none"
               d="m 0,0 h -3.913 c 0,0 1.656,-1.303 1.75,-1.379 0.085,-0.068 0.227,-0.082 0.354,0.012 C -1.698,-1.287 0,0 0,0"
               transform="matrix(2.0998405,0,0,2.0998405,451.14656,81.787074)" />
            <g
               transform="matrix(2.0998405,0,0,2.0998405,447.27089,77.218452)"
               id="g300">
              <path
                 id="path302"
                 style="fill:#e6b706;fill-opacity:1;fill-rule:nonzero;stroke:none"
                 d="m 0,0 c -0.047,-0.035 -0.101,-0.051 -0.154,-0.051 -0.057,0 -0.113,0.02 -0.158,0.055 L -2.467,1.699 V -1.09 c 0,-0.168 0.138,-0.306 0.306,-0.306 h 4.013 c 0.168,0 0.304,0.138 0.304,0.306 v 2.721 z" />
            </g>
          </g>
        </g>
      </g>
    </g>
  </g>
</svg>
